<mxfile host="app.diagrams.net" modified="2024-01-31T08:40:03.342Z" agent="Mozilla/5.0 (Windows NT 10.0; Win64; x64) AppleWebKit/537.36 (KHTML, like Gecko) Chrome/121.0.0.0 Safari/537.36 Edg/121.0.0.0" version="23.0.2" etag="L4FraspjCX68Mly2JMfT" type="github">
  <diagram name="第 1 页" id="_MDW0wuJXzia9dExZFBj">
    <mxGraphModel>
      <root>
        <mxCell id="0" />
        <mxCell id="1" parent="0" />
      </root>
    </mxGraphModel>
  </diagram>
</mxfile>
